M48
; DRILL file {KiCad 9.0.6} date 2025-12-22T23:05:53+0300
; FORMAT={-:-/ absolute / metric / decimal}
; #@! TF.CreationDate,2025-12-22T23:05:53+03:00
; #@! TF.GenerationSoftware,Kicad,Pcbnew,9.0.6
; #@! TF.FileFunction,Plated,1,2,PTH
FMAT,2
METRIC
; #@! TA.AperFunction,Plated,PTH,ViaDrill
T1C0.300
; #@! TA.AperFunction,Plated,PTH,ComponentDrill
T2C0.800
; #@! TA.AperFunction,Plated,PTH,ComponentDrill
T3C0.850
; #@! TA.AperFunction,Plated,PTH,ComponentDrill
T4C0.900
; #@! TA.AperFunction,Plated,PTH,ComponentDrill
T5C1.300
%
G90
G05
T1
X99.441Y-55.397
X107.061Y-55.397
X107.696Y-95.402
X110.871Y-103.022
X112.141Y-103.022
X113.411Y-103.022
T2
X106.426Y-66.827
X106.426Y-69.367
X106.426Y-71.907
X106.426Y-74.447
X116.586Y-71.907
X116.586Y-66.827
X116.586Y-69.367
X116.586Y-74.447
T3
X100.316Y-87.782
X100.316Y-90.322
X100.316Y-92.862
X100.316Y-95.402
X100.316Y-97.942
X100.316Y-100.482
X100.316Y-103.022
X100.316Y-105.562
X117.602Y-105.562
X117.616Y-87.782
X117.616Y-90.322
X117.616Y-92.862
X117.616Y-95.402
X117.616Y-97.942
X117.616Y-100.482
X117.616Y-103.022
T4
X110.871Y-58.572
X113.411Y-58.572
X115.951Y-58.572
T5
X106.466Y-48.24
X111.466Y-48.24
M30
