G04 #@! TF.GenerationSoftware,KiCad,Pcbnew,9.0.6*
G04 #@! TF.CreationDate,2025-12-22T23:05:57+03:00*
G04 #@! TF.ProjectId,RainLight,5261696e-4c69-4676-9874-2e6b69636164,rev?*
G04 #@! TF.SameCoordinates,Original*
G04 #@! TF.FileFunction,Copper,L2,Bot*
G04 #@! TF.FilePolarity,Positive*
%FSLAX46Y46*%
G04 Gerber Fmt 4.6, Leading zero omitted, Abs format (unit mm)*
G04 Created by KiCad (PCBNEW 9.0.6) date 2025-12-22 23:05:57*
%MOMM*%
%LPD*%
G01*
G04 APERTURE LIST*
G04 Aperture macros list*
%AMRoundRect*
0 Rectangle with rounded corners*
0 $1 Rounding radius*
0 $2 $3 $4 $5 $6 $7 $8 $9 X,Y pos of 4 corners*
0 Add a 4 corners polygon primitive as box body*
4,1,4,$2,$3,$4,$5,$6,$7,$8,$9,$2,$3,0*
0 Add four circle primitives for the rounded corners*
1,1,$1+$1,$2,$3*
1,1,$1+$1,$4,$5*
1,1,$1+$1,$6,$7*
1,1,$1+$1,$8,$9*
0 Add four rect primitives between the rounded corners*
20,1,$1+$1,$2,$3,$4,$5,0*
20,1,$1+$1,$4,$5,$6,$7,0*
20,1,$1+$1,$6,$7,$8,$9,0*
20,1,$1+$1,$8,$9,$2,$3,0*%
G04 Aperture macros list end*
G04 #@! TA.AperFunction,ComponentPad*
%ADD10RoundRect,0.250000X-0.550000X-0.550000X0.550000X-0.550000X0.550000X0.550000X-0.550000X0.550000X0*%
G04 #@! TD*
G04 #@! TA.AperFunction,ComponentPad*
%ADD11C,1.600000*%
G04 #@! TD*
G04 #@! TA.AperFunction,ComponentPad*
%ADD12RoundRect,0.250000X1.050000X1.050000X-1.050000X1.050000X-1.050000X-1.050000X1.050000X-1.050000X0*%
G04 #@! TD*
G04 #@! TA.AperFunction,ComponentPad*
%ADD13C,2.600000*%
G04 #@! TD*
G04 #@! TA.AperFunction,ComponentPad*
%ADD14RoundRect,0.248400X0.651600X0.651600X-0.651600X0.651600X-0.651600X-0.651600X0.651600X-0.651600X0*%
G04 #@! TD*
G04 #@! TA.AperFunction,ComponentPad*
%ADD15C,1.800000*%
G04 #@! TD*
G04 #@! TA.AperFunction,ComponentPad*
%ADD16C,1.500000*%
G04 #@! TD*
G04 #@! TA.AperFunction,ViaPad*
%ADD17C,0.600000*%
G04 #@! TD*
G04 #@! TA.AperFunction,Conductor*
%ADD18C,0.500000*%
G04 #@! TD*
G04 #@! TA.AperFunction,Conductor*
%ADD19C,0.700000*%
G04 #@! TD*
G04 APERTURE END LIST*
D10*
X106426000Y-66827400D03*
D11*
X106426000Y-69367400D03*
X106426000Y-71907399D03*
X106426000Y-74447400D03*
X116586000Y-74447400D03*
X116585999Y-71907400D03*
X116586000Y-69367400D03*
X116586000Y-66827400D03*
D12*
X111466000Y-48239900D03*
D13*
X106466000Y-48239900D03*
D14*
X115951000Y-58572400D03*
D15*
X113411000Y-58572400D03*
X110871001Y-58572400D03*
D16*
X100316000Y-87782400D03*
X100316000Y-90322400D03*
X100316000Y-92862400D03*
X100316000Y-95402400D03*
X100316000Y-97942400D03*
X117602000Y-105562400D03*
X117616000Y-103022400D03*
X117616000Y-100482400D03*
X117616000Y-97942400D03*
X117616000Y-95402400D03*
X117616000Y-92862400D03*
X117616000Y-90322400D03*
X117616000Y-87782400D03*
X100316000Y-100482400D03*
X100316000Y-105562400D03*
X100316000Y-103022400D03*
D17*
X107061000Y-55397400D03*
X99441000Y-55397400D03*
X113411000Y-103022400D03*
X112141000Y-103022400D03*
X110871000Y-103022400D03*
X107696000Y-95402400D03*
D18*
X99441000Y-55397400D02*
X107061000Y-55397400D01*
D19*
X116586000Y-66827400D02*
X115316000Y-66827400D01*
X108966000Y-60477400D02*
X108966000Y-50739900D01*
X115316000Y-66827400D02*
X108966000Y-60477400D01*
X108966000Y-50739900D02*
X111466000Y-48239900D01*
D18*
X117616000Y-103022400D02*
X115951000Y-103022400D01*
X115951000Y-103022400D02*
X112776000Y-99847400D01*
X112776000Y-99847400D02*
X112776000Y-77622400D01*
X112776000Y-77622400D02*
X109601000Y-74447400D01*
X109601000Y-74447400D02*
X106426000Y-74447400D01*
X105156000Y-97942400D02*
X100316000Y-97942400D01*
X107696000Y-95402400D02*
X105156000Y-97942400D01*
G04 #@! TA.AperFunction,Conductor*
G36*
X120460839Y-43852585D02*
G01*
X120506594Y-43905389D01*
X120517800Y-43956900D01*
X120517800Y-106207900D01*
X120498115Y-106274939D01*
X120445311Y-106320694D01*
X120393800Y-106331900D01*
X118815739Y-106331900D01*
X118748700Y-106312215D01*
X118702945Y-106259411D01*
X118693001Y-106190253D01*
X118705254Y-106151605D01*
X118760882Y-106042429D01*
X118760882Y-106042428D01*
X118760884Y-106042425D01*
X118821709Y-105855226D01*
X118852500Y-105660822D01*
X118852500Y-105463977D01*
X118821709Y-105269573D01*
X118760882Y-105082370D01*
X118671523Y-104906994D01*
X118555828Y-104747754D01*
X118416646Y-104608572D01*
X118257405Y-104492876D01*
X118087384Y-104406246D01*
X118036588Y-104358271D01*
X118019793Y-104290450D01*
X118042330Y-104224315D01*
X118092171Y-104184452D01*
X118091684Y-104183496D01*
X118117034Y-104170579D01*
X118271405Y-104091924D01*
X118430646Y-103976228D01*
X118569828Y-103837046D01*
X118685524Y-103677805D01*
X118774884Y-103502425D01*
X118835709Y-103315226D01*
X118856106Y-103186444D01*
X118866500Y-103120822D01*
X118866500Y-102923977D01*
X118835709Y-102729573D01*
X118807487Y-102642717D01*
X118774884Y-102542375D01*
X118774882Y-102542372D01*
X118774882Y-102542370D01*
X118727743Y-102449855D01*
X118685524Y-102366995D01*
X118569828Y-102207754D01*
X118430646Y-102068572D01*
X118306975Y-101978719D01*
X118271403Y-101952874D01*
X118094787Y-101862885D01*
X118043990Y-101814911D01*
X118027195Y-101747090D01*
X118049732Y-101680955D01*
X118094787Y-101641915D01*
X118271403Y-101551925D01*
X118271402Y-101551925D01*
X118271405Y-101551924D01*
X118430646Y-101436228D01*
X118569828Y-101297046D01*
X118685524Y-101137805D01*
X118774884Y-100962425D01*
X118835709Y-100775226D01*
X118866500Y-100580822D01*
X118866500Y-100383977D01*
X118835709Y-100189573D01*
X118774882Y-100002370D01*
X118685523Y-99826994D01*
X118569828Y-99667754D01*
X118430646Y-99528572D01*
X118351025Y-99470724D01*
X118271403Y-99412874D01*
X118094787Y-99322885D01*
X118043990Y-99274911D01*
X118027195Y-99207090D01*
X118049732Y-99140955D01*
X118094787Y-99101915D01*
X118271403Y-99011925D01*
X118271402Y-99011925D01*
X118271405Y-99011924D01*
X118430646Y-98896228D01*
X118569828Y-98757046D01*
X118685524Y-98597805D01*
X118774884Y-98422425D01*
X118835709Y-98235226D01*
X118866500Y-98040822D01*
X118866500Y-97843977D01*
X118835709Y-97649573D01*
X118774882Y-97462370D01*
X118685523Y-97286994D01*
X118569828Y-97127754D01*
X118430646Y-96988572D01*
X118351025Y-96930724D01*
X118271403Y-96872874D01*
X118094787Y-96782885D01*
X118043990Y-96734911D01*
X118027195Y-96667090D01*
X118049732Y-96600955D01*
X118094787Y-96561915D01*
X118271403Y-96471925D01*
X118271402Y-96471925D01*
X118271405Y-96471924D01*
X118430646Y-96356228D01*
X118569828Y-96217046D01*
X118685524Y-96057805D01*
X118774884Y-95882425D01*
X118835709Y-95695226D01*
X118845107Y-95635889D01*
X118866500Y-95500822D01*
X118866500Y-95303977D01*
X118835709Y-95109573D01*
X118774882Y-94922370D01*
X118702652Y-94780611D01*
X118685524Y-94746995D01*
X118569828Y-94587754D01*
X118430646Y-94448572D01*
X118351025Y-94390724D01*
X118271403Y-94332874D01*
X118094787Y-94242885D01*
X118043990Y-94194911D01*
X118027195Y-94127090D01*
X118049732Y-94060955D01*
X118094787Y-94021915D01*
X118271403Y-93931925D01*
X118271402Y-93931925D01*
X118271405Y-93931924D01*
X118430646Y-93816228D01*
X118569828Y-93677046D01*
X118685524Y-93517805D01*
X118774884Y-93342425D01*
X118835709Y-93155226D01*
X118866500Y-92960822D01*
X118866500Y-92763977D01*
X118835709Y-92569573D01*
X118774882Y-92382370D01*
X118685523Y-92206994D01*
X118569828Y-92047754D01*
X118430646Y-91908572D01*
X118351025Y-91850724D01*
X118271403Y-91792874D01*
X118094787Y-91702885D01*
X118043990Y-91654911D01*
X118027195Y-91587090D01*
X118049732Y-91520955D01*
X118094787Y-91481915D01*
X118271403Y-91391925D01*
X118271402Y-91391925D01*
X118271405Y-91391924D01*
X118430646Y-91276228D01*
X118569828Y-91137046D01*
X118685524Y-90977805D01*
X118774884Y-90802425D01*
X118835709Y-90615226D01*
X118866500Y-90420822D01*
X118866500Y-90223977D01*
X118835709Y-90029573D01*
X118774882Y-89842370D01*
X118685523Y-89666994D01*
X118569828Y-89507754D01*
X118430646Y-89368572D01*
X118351025Y-89310724D01*
X118271403Y-89252874D01*
X118094787Y-89162885D01*
X118043990Y-89114911D01*
X118027195Y-89047090D01*
X118049732Y-88980955D01*
X118094787Y-88941915D01*
X118271403Y-88851925D01*
X118271402Y-88851925D01*
X118271405Y-88851924D01*
X118430646Y-88736228D01*
X118569828Y-88597046D01*
X118685524Y-88437805D01*
X118774884Y-88262425D01*
X118835709Y-88075226D01*
X118866500Y-87880822D01*
X118866500Y-87683977D01*
X118835709Y-87489573D01*
X118774882Y-87302370D01*
X118685523Y-87126994D01*
X118569828Y-86967754D01*
X118430646Y-86828572D01*
X118271405Y-86712876D01*
X118096029Y-86623517D01*
X117908826Y-86562690D01*
X117714422Y-86531900D01*
X117714417Y-86531900D01*
X117517583Y-86531900D01*
X117517578Y-86531900D01*
X117323173Y-86562690D01*
X117135970Y-86623517D01*
X116960594Y-86712876D01*
X116869741Y-86778885D01*
X116801354Y-86828572D01*
X116801352Y-86828574D01*
X116801351Y-86828574D01*
X116662174Y-86967751D01*
X116662174Y-86967752D01*
X116662172Y-86967754D01*
X116612485Y-87036141D01*
X116546476Y-87126994D01*
X116457117Y-87302370D01*
X116396290Y-87489573D01*
X116365500Y-87683977D01*
X116365500Y-87880822D01*
X116396290Y-88075226D01*
X116457117Y-88262429D01*
X116546476Y-88437805D01*
X116662172Y-88597046D01*
X116801354Y-88736228D01*
X116960595Y-88851924D01*
X117083992Y-88914797D01*
X117137213Y-88941915D01*
X117188009Y-88989889D01*
X117204804Y-89057710D01*
X117182267Y-89123845D01*
X117137213Y-89162885D01*
X116960594Y-89252876D01*
X116869741Y-89318885D01*
X116801354Y-89368572D01*
X116801352Y-89368574D01*
X116801351Y-89368574D01*
X116662174Y-89507751D01*
X116662174Y-89507752D01*
X116662172Y-89507754D01*
X116612485Y-89576141D01*
X116546476Y-89666994D01*
X116457117Y-89842370D01*
X116396290Y-90029573D01*
X116365500Y-90223977D01*
X116365500Y-90420822D01*
X116396290Y-90615226D01*
X116457117Y-90802429D01*
X116546476Y-90977805D01*
X116662172Y-91137046D01*
X116801354Y-91276228D01*
X116960595Y-91391924D01*
X117083992Y-91454797D01*
X117137213Y-91481915D01*
X117188009Y-91529889D01*
X117204804Y-91597710D01*
X117182267Y-91663845D01*
X117137213Y-91702885D01*
X116960594Y-91792876D01*
X116869741Y-91858885D01*
X116801354Y-91908572D01*
X116801352Y-91908574D01*
X116801351Y-91908574D01*
X116662174Y-92047751D01*
X116662174Y-92047752D01*
X116662172Y-92047754D01*
X116612485Y-92116141D01*
X116546476Y-92206994D01*
X116457117Y-92382370D01*
X116396290Y-92569573D01*
X116365500Y-92763977D01*
X116365500Y-92960822D01*
X116396290Y-93155226D01*
X116457117Y-93342429D01*
X116546476Y-93517805D01*
X116662172Y-93677046D01*
X116801354Y-93816228D01*
X116960595Y-93931924D01*
X117083992Y-93994797D01*
X117137213Y-94021915D01*
X117188009Y-94069889D01*
X117204804Y-94137710D01*
X117182267Y-94203845D01*
X117137213Y-94242885D01*
X116960594Y-94332876D01*
X116869741Y-94398885D01*
X116801354Y-94448572D01*
X116801352Y-94448574D01*
X116801351Y-94448574D01*
X116662174Y-94587751D01*
X116662174Y-94587752D01*
X116662172Y-94587754D01*
X116629545Y-94632661D01*
X116546476Y-94746994D01*
X116457117Y-94922370D01*
X116396290Y-95109573D01*
X116365500Y-95303977D01*
X116365500Y-95500822D01*
X116396290Y-95695226D01*
X116457117Y-95882429D01*
X116529348Y-96024189D01*
X116546476Y-96057805D01*
X116662172Y-96217046D01*
X116801354Y-96356228D01*
X116960595Y-96471924D01*
X117083992Y-96534797D01*
X117137213Y-96561915D01*
X117188009Y-96609889D01*
X117204804Y-96677710D01*
X117182267Y-96743845D01*
X117137213Y-96782885D01*
X116960594Y-96872876D01*
X116869741Y-96938885D01*
X116801354Y-96988572D01*
X116801352Y-96988574D01*
X116801351Y-96988574D01*
X116662174Y-97127751D01*
X116662174Y-97127752D01*
X116662172Y-97127754D01*
X116629869Y-97172215D01*
X116546476Y-97286994D01*
X116457117Y-97462370D01*
X116396290Y-97649573D01*
X116365500Y-97843977D01*
X116365500Y-98040822D01*
X116396290Y-98235226D01*
X116457117Y-98422429D01*
X116534645Y-98574586D01*
X116546476Y-98597805D01*
X116662172Y-98757046D01*
X116801354Y-98896228D01*
X116960595Y-99011924D01*
X117083992Y-99074797D01*
X117137213Y-99101915D01*
X117188009Y-99149889D01*
X117204804Y-99217710D01*
X117182267Y-99283845D01*
X117137213Y-99322885D01*
X116960594Y-99412876D01*
X116869741Y-99478885D01*
X116801354Y-99528572D01*
X116801352Y-99528574D01*
X116801351Y-99528574D01*
X116662174Y-99667751D01*
X116662174Y-99667752D01*
X116662172Y-99667754D01*
X116612485Y-99736141D01*
X116546476Y-99826994D01*
X116457117Y-100002370D01*
X116396290Y-100189573D01*
X116365500Y-100383977D01*
X116365500Y-100580822D01*
X116396290Y-100775226D01*
X116457117Y-100962429D01*
X116546476Y-101137805D01*
X116662172Y-101297046D01*
X116801354Y-101436228D01*
X116960595Y-101551924D01*
X117083992Y-101614797D01*
X117137213Y-101641915D01*
X117188009Y-101689889D01*
X117204804Y-101757710D01*
X117182267Y-101823845D01*
X117137213Y-101862885D01*
X116960594Y-101952876D01*
X116869741Y-102018885D01*
X116801354Y-102068572D01*
X116801352Y-102068574D01*
X116801351Y-102068574D01*
X116662171Y-102207754D01*
X116652703Y-102220787D01*
X116648371Y-102224126D01*
X116646099Y-102229103D01*
X116620998Y-102245234D01*
X116597372Y-102263452D01*
X116590701Y-102264704D01*
X116587321Y-102266877D01*
X116552386Y-102271900D01*
X116313230Y-102271900D01*
X116246191Y-102252215D01*
X116225549Y-102235581D01*
X113562819Y-99572851D01*
X113529334Y-99511528D01*
X113526500Y-99485170D01*
X113526500Y-86001400D01*
X113546185Y-85934361D01*
X113598989Y-85888606D01*
X113650500Y-85877400D01*
X119126000Y-85877400D01*
X119126000Y-77622400D01*
X113642967Y-77622400D01*
X113575928Y-77602715D01*
X113530173Y-77549911D01*
X113521350Y-77522591D01*
X113511295Y-77472042D01*
X113497658Y-77403487D01*
X113441084Y-77266905D01*
X113408186Y-77217670D01*
X113408185Y-77217668D01*
X113358956Y-77143989D01*
X113358952Y-77143984D01*
X110079421Y-73864452D01*
X110079414Y-73864446D01*
X110005729Y-73815212D01*
X110005729Y-73815213D01*
X109956491Y-73782313D01*
X109819917Y-73725743D01*
X109819907Y-73725740D01*
X109674920Y-73696900D01*
X109674918Y-73696900D01*
X107551418Y-73696900D01*
X107484379Y-73677215D01*
X107451100Y-73645785D01*
X107417971Y-73600187D01*
X107417967Y-73600182D01*
X107273213Y-73455428D01*
X107107613Y-73335115D01*
X107107612Y-73335114D01*
X107107610Y-73335113D01*
X107014917Y-73287883D01*
X106964122Y-73239909D01*
X106947327Y-73172088D01*
X106969864Y-73105953D01*
X107014917Y-73066915D01*
X107107610Y-73019686D01*
X107157144Y-72983697D01*
X107273213Y-72899370D01*
X107273215Y-72899367D01*
X107273219Y-72899365D01*
X107417966Y-72754618D01*
X107417970Y-72754613D01*
X107417971Y-72754612D01*
X107470732Y-72681989D01*
X107538287Y-72589009D01*
X107631220Y-72406618D01*
X107694477Y-72211933D01*
X107726500Y-72009751D01*
X107726500Y-71805047D01*
X107694477Y-71602865D01*
X107631220Y-71408180D01*
X107631218Y-71408176D01*
X107631218Y-71408175D01*
X107597503Y-71342006D01*
X107538287Y-71225789D01*
X107530556Y-71215148D01*
X107417971Y-71060185D01*
X107273213Y-70915427D01*
X107107613Y-70795114D01*
X107107612Y-70795113D01*
X107107610Y-70795112D01*
X107014920Y-70747884D01*
X106964124Y-70699909D01*
X106947329Y-70632088D01*
X106969866Y-70565953D01*
X107014919Y-70526915D01*
X107107610Y-70479687D01*
X107157144Y-70443698D01*
X107273213Y-70359371D01*
X107273215Y-70359368D01*
X107273219Y-70359366D01*
X107417966Y-70214619D01*
X107417968Y-70214615D01*
X107417971Y-70214613D01*
X107470732Y-70141990D01*
X107538287Y-70049010D01*
X107631220Y-69866619D01*
X107694477Y-69671934D01*
X107726500Y-69469752D01*
X107726500Y-69265048D01*
X107694477Y-69062866D01*
X107631220Y-68868181D01*
X107631218Y-68868178D01*
X107631218Y-68868176D01*
X107597503Y-68802007D01*
X107538287Y-68685790D01*
X107530556Y-68675149D01*
X107417971Y-68520186D01*
X107273217Y-68375432D01*
X107273212Y-68375428D01*
X107179051Y-68307016D01*
X107136385Y-68251686D01*
X107130406Y-68182073D01*
X107163012Y-68120278D01*
X107212933Y-68088992D01*
X107295117Y-68061759D01*
X107295124Y-68061756D01*
X107444345Y-67969715D01*
X107568315Y-67845745D01*
X107660356Y-67696524D01*
X107660358Y-67696519D01*
X107715505Y-67530097D01*
X107715506Y-67530090D01*
X107725999Y-67427386D01*
X107726000Y-67427373D01*
X107726000Y-67077400D01*
X106741686Y-67077400D01*
X106746080Y-67073006D01*
X106798741Y-66981794D01*
X106826000Y-66880061D01*
X106826000Y-66774739D01*
X106798741Y-66673006D01*
X106746080Y-66581794D01*
X106741686Y-66577400D01*
X107725999Y-66577400D01*
X107725999Y-66227428D01*
X107725998Y-66227413D01*
X107715505Y-66124702D01*
X107660358Y-65958280D01*
X107660356Y-65958275D01*
X107568315Y-65809054D01*
X107444345Y-65685084D01*
X107295124Y-65593043D01*
X107295119Y-65593041D01*
X107128697Y-65537894D01*
X107128690Y-65537893D01*
X107025986Y-65527400D01*
X106676000Y-65527400D01*
X106676000Y-66511714D01*
X106671606Y-66507320D01*
X106580394Y-66454659D01*
X106478661Y-66427400D01*
X106373339Y-66427400D01*
X106271606Y-66454659D01*
X106180394Y-66507320D01*
X106176000Y-66511714D01*
X106176000Y-65527400D01*
X105826028Y-65527400D01*
X105826012Y-65527401D01*
X105723302Y-65537894D01*
X105556880Y-65593041D01*
X105556875Y-65593043D01*
X105407654Y-65685084D01*
X105283684Y-65809054D01*
X105191643Y-65958275D01*
X105191641Y-65958280D01*
X105136494Y-66124702D01*
X105136493Y-66124709D01*
X105126000Y-66227413D01*
X105126000Y-66577400D01*
X106110314Y-66577400D01*
X106105920Y-66581794D01*
X106053259Y-66673006D01*
X106026000Y-66774739D01*
X106026000Y-66880061D01*
X106053259Y-66981794D01*
X106105920Y-67073006D01*
X106110314Y-67077400D01*
X105126001Y-67077400D01*
X105126001Y-67427386D01*
X105136494Y-67530097D01*
X105191641Y-67696519D01*
X105191643Y-67696524D01*
X105283684Y-67845745D01*
X105407654Y-67969715D01*
X105556875Y-68061756D01*
X105556882Y-68061759D01*
X105639067Y-68088992D01*
X105696512Y-68128764D01*
X105723336Y-68193280D01*
X105711021Y-68262056D01*
X105672949Y-68307016D01*
X105578787Y-68375428D01*
X105578782Y-68375432D01*
X105434028Y-68520186D01*
X105313715Y-68685786D01*
X105220781Y-68868176D01*
X105157522Y-69062865D01*
X105125500Y-69265048D01*
X105125500Y-69469751D01*
X105157522Y-69671934D01*
X105220781Y-69866623D01*
X105313715Y-70049013D01*
X105434028Y-70214613D01*
X105578786Y-70359371D01*
X105744385Y-70479684D01*
X105744387Y-70479685D01*
X105744390Y-70479687D01*
X105837080Y-70526915D01*
X105887875Y-70574888D01*
X105904670Y-70642709D01*
X105882133Y-70708844D01*
X105837079Y-70747883D01*
X105744391Y-70795110D01*
X105744389Y-70795111D01*
X105578786Y-70915427D01*
X105434028Y-71060185D01*
X105313715Y-71225785D01*
X105220781Y-71408175D01*
X105157522Y-71602864D01*
X105125500Y-71805047D01*
X105125500Y-72009750D01*
X105157522Y-72211933D01*
X105220781Y-72406622D01*
X105313715Y-72589012D01*
X105434028Y-72754612D01*
X105578786Y-72899370D01*
X105744385Y-73019683D01*
X105744387Y-73019684D01*
X105744390Y-73019686D01*
X105837082Y-73066915D01*
X105887877Y-73114888D01*
X105904672Y-73182709D01*
X105882135Y-73248844D01*
X105837081Y-73287883D01*
X105744391Y-73335111D01*
X105744389Y-73335112D01*
X105578786Y-73455428D01*
X105434028Y-73600186D01*
X105313715Y-73765786D01*
X105220781Y-73948176D01*
X105157522Y-74142865D01*
X105125500Y-74345048D01*
X105125500Y-74549751D01*
X105157522Y-74751934D01*
X105220781Y-74946623D01*
X105313715Y-75129013D01*
X105434028Y-75294613D01*
X105578786Y-75439371D01*
X105733749Y-75551956D01*
X105744390Y-75559687D01*
X105860607Y-75618903D01*
X105926776Y-75652618D01*
X105926778Y-75652618D01*
X105926781Y-75652620D01*
X106031137Y-75686527D01*
X106121465Y-75715877D01*
X106222557Y-75731888D01*
X106323648Y-75747900D01*
X106323649Y-75747900D01*
X106528351Y-75747900D01*
X106528352Y-75747900D01*
X106730534Y-75715877D01*
X106925219Y-75652620D01*
X107107610Y-75559687D01*
X107200590Y-75492132D01*
X107273213Y-75439371D01*
X107273215Y-75439368D01*
X107273219Y-75439366D01*
X107417966Y-75294619D01*
X107420650Y-75290924D01*
X107451100Y-75249015D01*
X107506429Y-75206349D01*
X107551418Y-75197900D01*
X109238770Y-75197900D01*
X109305809Y-75217585D01*
X109326451Y-75234219D01*
X111502951Y-77410719D01*
X111536436Y-77472042D01*
X111531452Y-77541734D01*
X111489580Y-77597667D01*
X111424116Y-77622084D01*
X111415270Y-77622400D01*
X98806000Y-77622400D01*
X98806000Y-85877400D01*
X111901500Y-85877400D01*
X111968539Y-85897085D01*
X112014294Y-85949889D01*
X112025500Y-86001400D01*
X112025500Y-99921318D01*
X112025500Y-99921320D01*
X112025499Y-99921320D01*
X112054340Y-100066307D01*
X112054343Y-100066317D01*
X112110914Y-100202892D01*
X112143812Y-100252127D01*
X112143813Y-100252130D01*
X112193046Y-100325814D01*
X112193052Y-100325821D01*
X115472584Y-103605352D01*
X115472586Y-103605354D01*
X115502058Y-103625045D01*
X115546270Y-103654586D01*
X115595505Y-103687484D01*
X115595506Y-103687484D01*
X115595507Y-103687485D01*
X115595509Y-103687486D01*
X115732082Y-103744056D01*
X115732087Y-103744058D01*
X115732091Y-103744058D01*
X115732092Y-103744059D01*
X115877079Y-103772900D01*
X115877082Y-103772900D01*
X115877083Y-103772900D01*
X116024917Y-103772900D01*
X116552386Y-103772900D01*
X116619425Y-103792585D01*
X116652702Y-103824012D01*
X116662172Y-103837046D01*
X116801354Y-103976228D01*
X116960595Y-104091924D01*
X117118125Y-104172189D01*
X117130615Y-104178553D01*
X117181411Y-104226527D01*
X117198206Y-104294348D01*
X117175669Y-104360483D01*
X117125831Y-104400353D01*
X117126316Y-104401304D01*
X116946594Y-104492876D01*
X116855741Y-104558885D01*
X116787354Y-104608572D01*
X116787352Y-104608574D01*
X116787351Y-104608574D01*
X116648174Y-104747751D01*
X116648174Y-104747752D01*
X116648172Y-104747754D01*
X116598485Y-104816141D01*
X116532476Y-104906994D01*
X116443117Y-105082370D01*
X116382290Y-105269573D01*
X116351500Y-105463977D01*
X116351500Y-105660822D01*
X116382290Y-105855226D01*
X116443117Y-106042429D01*
X116498746Y-106151605D01*
X116511642Y-106220274D01*
X116485366Y-106285015D01*
X116428259Y-106325272D01*
X116388261Y-106331900D01*
X101529739Y-106331900D01*
X101462700Y-106312215D01*
X101416945Y-106259411D01*
X101407001Y-106190253D01*
X101419254Y-106151605D01*
X101474882Y-106042429D01*
X101474882Y-106042428D01*
X101474884Y-106042425D01*
X101535709Y-105855226D01*
X101566500Y-105660822D01*
X101566500Y-105463977D01*
X101535709Y-105269573D01*
X101474882Y-105082370D01*
X101385523Y-104906994D01*
X101269828Y-104747754D01*
X101130646Y-104608572D01*
X100971405Y-104492876D01*
X100796025Y-104403516D01*
X100796024Y-104403515D01*
X100794235Y-104402604D01*
X100743439Y-104354630D01*
X100726644Y-104286809D01*
X100749181Y-104220674D01*
X100794236Y-104181634D01*
X100971141Y-104091497D01*
X101006125Y-104066078D01*
X101006126Y-104066078D01*
X100384173Y-103444125D01*
X100480044Y-103418437D01*
X100576956Y-103362484D01*
X100656084Y-103283356D01*
X100712037Y-103186444D01*
X100737725Y-103090573D01*
X101359678Y-103712526D01*
X101359678Y-103712525D01*
X101385095Y-103677543D01*
X101474418Y-103502235D01*
X101535221Y-103315105D01*
X101566000Y-103120782D01*
X101566000Y-102924017D01*
X101535221Y-102729694D01*
X101474418Y-102542564D01*
X101385096Y-102367258D01*
X101359678Y-102332273D01*
X101359677Y-102332273D01*
X100737725Y-102954226D01*
X100712037Y-102858356D01*
X100656084Y-102761444D01*
X100576956Y-102682316D01*
X100480044Y-102626363D01*
X100384172Y-102600674D01*
X101006125Y-101978720D01*
X101006125Y-101978719D01*
X100971145Y-101953305D01*
X100794235Y-101863165D01*
X100743439Y-101815190D01*
X100726644Y-101747369D01*
X100749182Y-101681234D01*
X100794236Y-101642195D01*
X100796022Y-101641284D01*
X100796025Y-101641284D01*
X100971405Y-101551924D01*
X101130646Y-101436228D01*
X101269828Y-101297046D01*
X101385524Y-101137805D01*
X101474884Y-100962425D01*
X101535709Y-100775226D01*
X101566500Y-100580822D01*
X101566500Y-100383977D01*
X101535709Y-100189573D01*
X101474882Y-100002370D01*
X101385523Y-99826994D01*
X101269828Y-99667754D01*
X101130646Y-99528572D01*
X101051025Y-99470724D01*
X100971403Y-99412874D01*
X100794787Y-99322885D01*
X100743990Y-99274911D01*
X100727195Y-99207090D01*
X100749732Y-99140955D01*
X100794787Y-99101915D01*
X100971403Y-99011925D01*
X100971402Y-99011925D01*
X100971405Y-99011924D01*
X101130646Y-98896228D01*
X101269828Y-98757046D01*
X101279297Y-98744012D01*
X101334628Y-98701348D01*
X101379614Y-98692900D01*
X105229920Y-98692900D01*
X105327462Y-98673496D01*
X105374913Y-98664058D01*
X105511495Y-98607484D01*
X105560729Y-98574586D01*
X105634416Y-98525352D01*
X108011295Y-96148470D01*
X108051519Y-96121593D01*
X108075179Y-96111794D01*
X108206289Y-96024189D01*
X108317789Y-95912689D01*
X108405394Y-95781579D01*
X108465737Y-95635897D01*
X108496500Y-95481242D01*
X108496500Y-95323558D01*
X108496500Y-95323555D01*
X108496499Y-95323553D01*
X108465738Y-95168910D01*
X108465737Y-95168903D01*
X108465735Y-95168898D01*
X108405397Y-95023227D01*
X108405390Y-95023214D01*
X108317789Y-94892111D01*
X108317786Y-94892107D01*
X108206292Y-94780613D01*
X108206288Y-94780610D01*
X108075185Y-94693009D01*
X108075172Y-94693002D01*
X107929501Y-94632664D01*
X107929489Y-94632661D01*
X107774845Y-94601900D01*
X107774842Y-94601900D01*
X107617158Y-94601900D01*
X107617155Y-94601900D01*
X107462510Y-94632661D01*
X107462498Y-94632664D01*
X107316827Y-94693002D01*
X107316814Y-94693009D01*
X107185711Y-94780610D01*
X107185707Y-94780613D01*
X107074213Y-94892107D01*
X107074207Y-94892115D01*
X106986607Y-95023218D01*
X106986605Y-95023222D01*
X106976805Y-95046880D01*
X106949927Y-95087104D01*
X104881451Y-97155581D01*
X104820128Y-97189066D01*
X104793770Y-97191900D01*
X101379614Y-97191900D01*
X101312575Y-97172215D01*
X101279297Y-97140787D01*
X101269828Y-97127754D01*
X101130648Y-96988574D01*
X101130646Y-96988572D01*
X101051025Y-96930724D01*
X100971403Y-96872874D01*
X100794787Y-96782885D01*
X100743990Y-96734911D01*
X100727195Y-96667090D01*
X100749732Y-96600955D01*
X100794787Y-96561915D01*
X100971403Y-96471925D01*
X100971402Y-96471925D01*
X100971405Y-96471924D01*
X101130646Y-96356228D01*
X101269828Y-96217046D01*
X101385524Y-96057805D01*
X101474884Y-95882425D01*
X101535709Y-95695226D01*
X101545107Y-95635889D01*
X101566500Y-95500822D01*
X101566500Y-95303977D01*
X101535709Y-95109573D01*
X101474882Y-94922370D01*
X101402652Y-94780611D01*
X101385524Y-94746995D01*
X101269828Y-94587754D01*
X101130646Y-94448572D01*
X101051025Y-94390724D01*
X100971403Y-94332874D01*
X100794787Y-94242885D01*
X100743990Y-94194911D01*
X100727195Y-94127090D01*
X100749732Y-94060955D01*
X100794787Y-94021915D01*
X100971403Y-93931925D01*
X100971402Y-93931925D01*
X100971405Y-93931924D01*
X101130646Y-93816228D01*
X101269828Y-93677046D01*
X101385524Y-93517805D01*
X101474884Y-93342425D01*
X101535709Y-93155226D01*
X101566500Y-92960822D01*
X101566500Y-92763977D01*
X101535709Y-92569573D01*
X101474882Y-92382370D01*
X101385523Y-92206994D01*
X101269828Y-92047754D01*
X101130646Y-91908572D01*
X101051025Y-91850724D01*
X100971403Y-91792874D01*
X100794787Y-91702885D01*
X100743990Y-91654911D01*
X100727195Y-91587090D01*
X100749732Y-91520955D01*
X100794787Y-91481915D01*
X100971403Y-91391925D01*
X100971402Y-91391925D01*
X100971405Y-91391924D01*
X101130646Y-91276228D01*
X101269828Y-91137046D01*
X101385524Y-90977805D01*
X101474884Y-90802425D01*
X101535709Y-90615226D01*
X101566500Y-90420822D01*
X101566500Y-90223977D01*
X101535709Y-90029573D01*
X101474882Y-89842370D01*
X101385523Y-89666994D01*
X101269828Y-89507754D01*
X101130646Y-89368572D01*
X101051025Y-89310724D01*
X100971403Y-89252874D01*
X100794787Y-89162885D01*
X100743990Y-89114911D01*
X100727195Y-89047090D01*
X100749732Y-88980955D01*
X100794787Y-88941915D01*
X100971403Y-88851925D01*
X100971402Y-88851925D01*
X100971405Y-88851924D01*
X101130646Y-88736228D01*
X101269828Y-88597046D01*
X101385524Y-88437805D01*
X101474884Y-88262425D01*
X101535709Y-88075226D01*
X101566500Y-87880822D01*
X101566500Y-87683977D01*
X101535709Y-87489573D01*
X101474882Y-87302370D01*
X101385523Y-87126994D01*
X101269828Y-86967754D01*
X101130646Y-86828572D01*
X100971405Y-86712876D01*
X100796029Y-86623517D01*
X100608826Y-86562690D01*
X100414422Y-86531900D01*
X100414417Y-86531900D01*
X100217583Y-86531900D01*
X100217578Y-86531900D01*
X100023173Y-86562690D01*
X99835970Y-86623517D01*
X99660594Y-86712876D01*
X99569741Y-86778885D01*
X99501354Y-86828572D01*
X99501352Y-86828574D01*
X99501351Y-86828574D01*
X99362174Y-86967751D01*
X99362174Y-86967752D01*
X99362172Y-86967754D01*
X99312485Y-87036141D01*
X99246476Y-87126994D01*
X99157117Y-87302370D01*
X99096290Y-87489573D01*
X99065500Y-87683977D01*
X99065500Y-87880822D01*
X99096290Y-88075226D01*
X99157117Y-88262429D01*
X99246476Y-88437805D01*
X99362172Y-88597046D01*
X99501354Y-88736228D01*
X99660595Y-88851924D01*
X99783992Y-88914797D01*
X99837213Y-88941915D01*
X99888009Y-88989889D01*
X99904804Y-89057710D01*
X99882267Y-89123845D01*
X99837213Y-89162885D01*
X99660594Y-89252876D01*
X99569741Y-89318885D01*
X99501354Y-89368572D01*
X99501352Y-89368574D01*
X99501351Y-89368574D01*
X99362174Y-89507751D01*
X99362174Y-89507752D01*
X99362172Y-89507754D01*
X99312485Y-89576141D01*
X99246476Y-89666994D01*
X99157117Y-89842370D01*
X99096290Y-90029573D01*
X99065500Y-90223977D01*
X99065500Y-90420822D01*
X99096290Y-90615226D01*
X99157117Y-90802429D01*
X99246476Y-90977805D01*
X99362172Y-91137046D01*
X99501354Y-91276228D01*
X99660595Y-91391924D01*
X99783992Y-91454797D01*
X99837213Y-91481915D01*
X99888009Y-91529889D01*
X99904804Y-91597710D01*
X99882267Y-91663845D01*
X99837213Y-91702885D01*
X99660594Y-91792876D01*
X99569741Y-91858885D01*
X99501354Y-91908572D01*
X99501352Y-91908574D01*
X99501351Y-91908574D01*
X99362174Y-92047751D01*
X99362174Y-92047752D01*
X99362172Y-92047754D01*
X99312485Y-92116141D01*
X99246476Y-92206994D01*
X99157117Y-92382370D01*
X99096290Y-92569573D01*
X99065500Y-92763977D01*
X99065500Y-92960822D01*
X99096290Y-93155226D01*
X99157117Y-93342429D01*
X99246476Y-93517805D01*
X99362172Y-93677046D01*
X99501354Y-93816228D01*
X99660595Y-93931924D01*
X99783992Y-93994797D01*
X99837213Y-94021915D01*
X99888009Y-94069889D01*
X99904804Y-94137710D01*
X99882267Y-94203845D01*
X99837213Y-94242885D01*
X99660594Y-94332876D01*
X99569741Y-94398885D01*
X99501354Y-94448572D01*
X99501352Y-94448574D01*
X99501351Y-94448574D01*
X99362174Y-94587751D01*
X99362174Y-94587752D01*
X99362172Y-94587754D01*
X99329545Y-94632661D01*
X99246476Y-94746994D01*
X99157117Y-94922370D01*
X99096290Y-95109573D01*
X99065500Y-95303977D01*
X99065500Y-95500822D01*
X99096290Y-95695226D01*
X99157117Y-95882429D01*
X99229348Y-96024189D01*
X99246476Y-96057805D01*
X99362172Y-96217046D01*
X99501354Y-96356228D01*
X99660595Y-96471924D01*
X99783992Y-96534797D01*
X99837213Y-96561915D01*
X99888009Y-96609889D01*
X99904804Y-96677710D01*
X99882267Y-96743845D01*
X99837213Y-96782885D01*
X99660594Y-96872876D01*
X99569741Y-96938885D01*
X99501354Y-96988572D01*
X99501352Y-96988574D01*
X99501351Y-96988574D01*
X99362174Y-97127751D01*
X99362174Y-97127752D01*
X99362172Y-97127754D01*
X99329869Y-97172215D01*
X99246476Y-97286994D01*
X99157117Y-97462370D01*
X99096290Y-97649573D01*
X99065500Y-97843977D01*
X99065500Y-98040822D01*
X99096290Y-98235226D01*
X99157117Y-98422429D01*
X99234645Y-98574586D01*
X99246476Y-98597805D01*
X99362172Y-98757046D01*
X99501354Y-98896228D01*
X99660595Y-99011924D01*
X99783992Y-99074797D01*
X99837213Y-99101915D01*
X99888009Y-99149889D01*
X99904804Y-99217710D01*
X99882267Y-99283845D01*
X99837213Y-99322885D01*
X99660594Y-99412876D01*
X99569741Y-99478885D01*
X99501354Y-99528572D01*
X99501352Y-99528574D01*
X99501351Y-99528574D01*
X99362174Y-99667751D01*
X99362174Y-99667752D01*
X99362172Y-99667754D01*
X99312485Y-99736141D01*
X99246476Y-99826994D01*
X99157117Y-100002370D01*
X99096290Y-100189573D01*
X99065500Y-100383977D01*
X99065500Y-100580822D01*
X99096290Y-100775226D01*
X99157117Y-100962429D01*
X99246476Y-101137805D01*
X99362172Y-101297046D01*
X99501354Y-101436228D01*
X99620784Y-101523000D01*
X99660596Y-101551925D01*
X99837763Y-101642195D01*
X99888560Y-101690169D01*
X99905355Y-101757990D01*
X99882818Y-101824125D01*
X99837764Y-101863165D01*
X99660859Y-101953302D01*
X99625873Y-101978720D01*
X99625872Y-101978720D01*
X100247828Y-102600674D01*
X100151956Y-102626363D01*
X100055044Y-102682316D01*
X99975916Y-102761444D01*
X99919963Y-102858356D01*
X99894274Y-102954227D01*
X99272320Y-102332272D01*
X99272320Y-102332273D01*
X99246902Y-102367259D01*
X99246899Y-102367263D01*
X99157582Y-102542561D01*
X99096778Y-102729694D01*
X99066000Y-102924017D01*
X99066000Y-103120782D01*
X99096778Y-103315105D01*
X99157581Y-103502235D01*
X99246905Y-103677545D01*
X99272319Y-103712525D01*
X99272320Y-103712525D01*
X99894274Y-103090571D01*
X99919963Y-103186444D01*
X99975916Y-103283356D01*
X100055044Y-103362484D01*
X100151956Y-103418437D01*
X100247827Y-103444125D01*
X99625873Y-104066077D01*
X99625873Y-104066078D01*
X99660858Y-104091496D01*
X99837764Y-104181634D01*
X99888560Y-104229609D01*
X99905355Y-104297430D01*
X99882818Y-104363564D01*
X99837764Y-104402604D01*
X99660594Y-104492876D01*
X99569741Y-104558885D01*
X99501354Y-104608572D01*
X99501352Y-104608574D01*
X99501351Y-104608574D01*
X99362174Y-104747751D01*
X99362174Y-104747752D01*
X99362172Y-104747754D01*
X99312485Y-104816141D01*
X99246476Y-104906994D01*
X99157117Y-105082370D01*
X99096290Y-105269573D01*
X99065500Y-105463977D01*
X99065500Y-105660822D01*
X99096290Y-105855226D01*
X99157117Y-106042429D01*
X99212746Y-106151605D01*
X99225642Y-106220274D01*
X99199366Y-106285015D01*
X99142259Y-106325272D01*
X99102261Y-106331900D01*
X97538200Y-106331900D01*
X97471161Y-106312215D01*
X97425406Y-106259411D01*
X97414200Y-106207900D01*
X97414200Y-55318553D01*
X98640500Y-55318553D01*
X98640500Y-55476246D01*
X98671261Y-55630889D01*
X98671264Y-55630901D01*
X98731602Y-55776572D01*
X98731609Y-55776585D01*
X98819210Y-55907688D01*
X98819213Y-55907692D01*
X98930707Y-56019186D01*
X98930711Y-56019189D01*
X99061814Y-56106790D01*
X99061827Y-56106797D01*
X99161060Y-56147900D01*
X99207503Y-56167137D01*
X99362153Y-56197899D01*
X99362156Y-56197900D01*
X99362158Y-56197900D01*
X99519844Y-56197900D01*
X99519845Y-56197899D01*
X99596152Y-56182720D01*
X99674488Y-56167139D01*
X99674489Y-56167138D01*
X99674497Y-56167137D01*
X99698155Y-56157337D01*
X99745604Y-56147900D01*
X106756396Y-56147900D01*
X106803844Y-56157337D01*
X106827503Y-56167137D01*
X106827508Y-56167138D01*
X106827511Y-56167139D01*
X106982153Y-56197899D01*
X106982156Y-56197900D01*
X106982158Y-56197900D01*
X107139844Y-56197900D01*
X107139845Y-56197899D01*
X107294497Y-56167137D01*
X107440179Y-56106794D01*
X107571289Y-56019189D01*
X107682789Y-55907689D01*
X107770394Y-55776579D01*
X107830737Y-55630897D01*
X107861500Y-55476242D01*
X107861500Y-55318558D01*
X107861500Y-55318555D01*
X107861499Y-55318553D01*
X107830738Y-55163910D01*
X107830737Y-55163903D01*
X107830735Y-55163898D01*
X107770397Y-55018227D01*
X107770390Y-55018214D01*
X107682789Y-54887111D01*
X107682786Y-54887107D01*
X107571292Y-54775613D01*
X107571288Y-54775610D01*
X107440185Y-54688009D01*
X107440172Y-54688002D01*
X107294501Y-54627664D01*
X107294489Y-54627661D01*
X107139845Y-54596900D01*
X107139842Y-54596900D01*
X106982158Y-54596900D01*
X106982155Y-54596900D01*
X106827511Y-54627660D01*
X106827506Y-54627662D01*
X106827504Y-54627662D01*
X106827503Y-54627663D01*
X106803844Y-54637462D01*
X106756396Y-54646900D01*
X99745604Y-54646900D01*
X99698155Y-54637462D01*
X99674497Y-54627663D01*
X99674493Y-54627662D01*
X99674488Y-54627660D01*
X99519845Y-54596900D01*
X99519842Y-54596900D01*
X99362158Y-54596900D01*
X99362155Y-54596900D01*
X99207510Y-54627661D01*
X99207498Y-54627664D01*
X99061827Y-54688002D01*
X99061814Y-54688009D01*
X98930711Y-54775610D01*
X98930707Y-54775613D01*
X98819213Y-54887107D01*
X98819210Y-54887111D01*
X98731609Y-55018214D01*
X98731602Y-55018227D01*
X98671264Y-55163898D01*
X98671261Y-55163910D01*
X98640500Y-55318553D01*
X97414200Y-55318553D01*
X97414200Y-50656128D01*
X108115500Y-50656128D01*
X108115500Y-60561171D01*
X108148181Y-60725473D01*
X108148184Y-60725482D01*
X108212296Y-60880263D01*
X108212297Y-60880266D01*
X108305372Y-61019561D01*
X108305375Y-61019565D01*
X114773830Y-67488019D01*
X114773831Y-67488020D01*
X114773834Y-67488022D01*
X114773838Y-67488026D01*
X114913137Y-67581104D01*
X115020110Y-67625413D01*
X115067918Y-67645216D01*
X115215708Y-67674613D01*
X115232228Y-67677899D01*
X115232232Y-67677900D01*
X115232233Y-67677900D01*
X115545953Y-67677900D01*
X115612992Y-67697585D01*
X115633634Y-67714219D01*
X115738786Y-67819371D01*
X115893749Y-67931956D01*
X115904390Y-67939687D01*
X115995840Y-67986283D01*
X115997080Y-67986915D01*
X116047876Y-68034890D01*
X116064671Y-68102711D01*
X116042134Y-68168846D01*
X115997080Y-68207885D01*
X115904386Y-68255115D01*
X115738786Y-68375428D01*
X115594028Y-68520186D01*
X115473715Y-68685786D01*
X115380781Y-68868176D01*
X115317522Y-69062865D01*
X115285500Y-69265048D01*
X115285500Y-69469751D01*
X115317522Y-69671934D01*
X115380781Y-69866623D01*
X115473715Y-70049013D01*
X115594028Y-70214613D01*
X115738786Y-70359371D01*
X115904385Y-70479684D01*
X115904387Y-70479685D01*
X115904390Y-70479687D01*
X115997080Y-70526915D01*
X116047875Y-70574888D01*
X116064670Y-70642709D01*
X116042133Y-70708844D01*
X115997080Y-70747883D01*
X115904387Y-70795113D01*
X115738785Y-70915428D01*
X115594027Y-71060186D01*
X115473714Y-71225786D01*
X115380780Y-71408176D01*
X115317521Y-71602865D01*
X115285499Y-71805048D01*
X115285499Y-72009751D01*
X115317521Y-72211934D01*
X115380780Y-72406623D01*
X115444690Y-72532053D01*
X115473711Y-72589009D01*
X115473714Y-72589013D01*
X115594027Y-72754613D01*
X115738785Y-72899371D01*
X115893748Y-73011956D01*
X115904389Y-73019687D01*
X115995839Y-73066283D01*
X115997079Y-73066915D01*
X116047875Y-73114890D01*
X116064670Y-73182711D01*
X116042133Y-73248846D01*
X115997079Y-73287884D01*
X115904391Y-73335111D01*
X115904389Y-73335112D01*
X115738786Y-73455428D01*
X115594028Y-73600186D01*
X115473715Y-73765786D01*
X115380781Y-73948176D01*
X115317522Y-74142865D01*
X115285500Y-74345048D01*
X115285500Y-74549751D01*
X115317522Y-74751934D01*
X115380781Y-74946623D01*
X115473715Y-75129013D01*
X115594028Y-75294613D01*
X115738786Y-75439371D01*
X115893749Y-75551956D01*
X115904390Y-75559687D01*
X116020607Y-75618903D01*
X116086776Y-75652618D01*
X116086778Y-75652618D01*
X116086781Y-75652620D01*
X116191137Y-75686527D01*
X116281465Y-75715877D01*
X116382557Y-75731888D01*
X116483648Y-75747900D01*
X116483649Y-75747900D01*
X116688351Y-75747900D01*
X116688352Y-75747900D01*
X116890534Y-75715877D01*
X117085219Y-75652620D01*
X117267610Y-75559687D01*
X117360590Y-75492132D01*
X117433213Y-75439371D01*
X117433215Y-75439368D01*
X117433219Y-75439366D01*
X117577966Y-75294619D01*
X117577968Y-75294615D01*
X117577971Y-75294613D01*
X117648236Y-75197900D01*
X117698287Y-75129010D01*
X117791220Y-74946619D01*
X117854477Y-74751934D01*
X117886500Y-74549752D01*
X117886500Y-74345048D01*
X117854477Y-74142866D01*
X117791220Y-73948181D01*
X117791218Y-73948178D01*
X117791218Y-73948176D01*
X117723469Y-73815213D01*
X117698287Y-73765790D01*
X117690556Y-73755149D01*
X117577971Y-73600186D01*
X117433213Y-73455428D01*
X117267610Y-73335112D01*
X117267608Y-73335111D01*
X117174919Y-73287883D01*
X117124123Y-73239909D01*
X117107328Y-73172088D01*
X117129866Y-73105953D01*
X117174918Y-73066915D01*
X117267609Y-73019687D01*
X117317143Y-72983698D01*
X117433212Y-72899371D01*
X117433214Y-72899368D01*
X117433218Y-72899366D01*
X117577965Y-72754619D01*
X117577967Y-72754615D01*
X117577970Y-72754613D01*
X117630731Y-72681990D01*
X117698286Y-72589010D01*
X117791219Y-72406619D01*
X117854476Y-72211934D01*
X117886499Y-72009752D01*
X117886499Y-71805048D01*
X117854476Y-71602866D01*
X117854475Y-71602864D01*
X117791217Y-71408176D01*
X117757502Y-71342007D01*
X117698286Y-71225790D01*
X117690555Y-71215149D01*
X117577970Y-71060186D01*
X117433212Y-70915428D01*
X117267612Y-70795115D01*
X117267611Y-70795114D01*
X117267609Y-70795113D01*
X117174919Y-70747885D01*
X117124123Y-70699910D01*
X117107328Y-70632089D01*
X117129865Y-70565954D01*
X117174917Y-70526916D01*
X117267610Y-70479687D01*
X117288770Y-70464313D01*
X117433213Y-70359371D01*
X117433215Y-70359368D01*
X117433219Y-70359366D01*
X117577966Y-70214619D01*
X117577968Y-70214615D01*
X117577971Y-70214613D01*
X117630732Y-70141990D01*
X117698287Y-70049010D01*
X117791220Y-69866619D01*
X117854477Y-69671934D01*
X117886500Y-69469752D01*
X117886500Y-69265048D01*
X117854477Y-69062866D01*
X117791220Y-68868181D01*
X117791218Y-68868178D01*
X117791218Y-68868176D01*
X117757503Y-68802007D01*
X117698287Y-68685790D01*
X117690556Y-68675149D01*
X117577971Y-68520186D01*
X117433213Y-68375428D01*
X117267614Y-68255115D01*
X117260884Y-68251686D01*
X117174917Y-68207883D01*
X117124123Y-68159911D01*
X117107328Y-68092090D01*
X117129865Y-68025955D01*
X117174917Y-67986916D01*
X117267610Y-67939687D01*
X117288770Y-67924313D01*
X117433213Y-67819371D01*
X117433215Y-67819368D01*
X117433219Y-67819366D01*
X117577966Y-67674619D01*
X117577968Y-67674615D01*
X117577971Y-67674613D01*
X117645908Y-67581104D01*
X117698287Y-67509010D01*
X117791220Y-67326619D01*
X117854477Y-67131934D01*
X117886500Y-66929752D01*
X117886500Y-66725048D01*
X117878257Y-66673006D01*
X117854477Y-66522865D01*
X117791218Y-66328176D01*
X117757503Y-66262007D01*
X117698287Y-66145790D01*
X117682966Y-66124702D01*
X117577971Y-65980186D01*
X117433213Y-65835428D01*
X117267613Y-65715115D01*
X117267612Y-65715114D01*
X117267610Y-65715113D01*
X117208675Y-65685084D01*
X117085223Y-65622181D01*
X116890534Y-65558922D01*
X116715995Y-65531278D01*
X116688352Y-65526900D01*
X116483648Y-65526900D01*
X116459329Y-65530751D01*
X116281465Y-65558922D01*
X116086776Y-65622181D01*
X115904386Y-65715115D01*
X115738781Y-65835433D01*
X115738773Y-65835439D01*
X115720477Y-65853735D01*
X115659153Y-65887217D01*
X115589461Y-65882230D01*
X115545119Y-65853731D01*
X109852819Y-60161430D01*
X109819334Y-60100107D01*
X109816500Y-60073749D01*
X109816500Y-59780738D01*
X109836185Y-59713699D01*
X109888989Y-59667944D01*
X109958147Y-59658000D01*
X110013385Y-59680420D01*
X110072634Y-59723466D01*
X110136979Y-59770215D01*
X110225749Y-59815446D01*
X110333394Y-59870295D01*
X110333397Y-59870296D01*
X110438222Y-59904355D01*
X110543050Y-59938415D01*
X110760779Y-59972900D01*
X110760780Y-59972900D01*
X110981222Y-59972900D01*
X110981223Y-59972900D01*
X111198952Y-59938415D01*
X111408607Y-59870295D01*
X111605023Y-59770215D01*
X111783366Y-59640642D01*
X111939243Y-59484765D01*
X112040992Y-59344718D01*
X112096320Y-59302053D01*
X112165933Y-59296073D01*
X112227728Y-59328679D01*
X112241628Y-59344719D01*
X112259932Y-59369913D01*
X112968861Y-58660984D01*
X112991667Y-58746094D01*
X113050910Y-58848706D01*
X113134694Y-58932490D01*
X113237306Y-58991733D01*
X113322414Y-59014537D01*
X112613485Y-59723465D01*
X112613485Y-59723466D01*
X112677243Y-59769788D01*
X112873589Y-59869832D01*
X113083164Y-59937926D01*
X113300819Y-59972400D01*
X113521181Y-59972400D01*
X113738835Y-59937926D01*
X113948410Y-59869832D01*
X114144760Y-59769786D01*
X114208513Y-59723466D01*
X114208514Y-59723466D01*
X113499585Y-59014538D01*
X113584694Y-58991733D01*
X113687306Y-58932490D01*
X113771090Y-58848706D01*
X113830333Y-58746094D01*
X113853138Y-58660984D01*
X114536407Y-59344253D01*
X114566432Y-59392929D01*
X114616046Y-59542653D01*
X114707952Y-59691656D01*
X114831744Y-59815448D01*
X114980747Y-59907354D01*
X115146928Y-59962421D01*
X115249499Y-59972900D01*
X116652500Y-59972899D01*
X116755072Y-59962421D01*
X116921253Y-59907354D01*
X117070256Y-59815448D01*
X117194048Y-59691656D01*
X117285954Y-59542653D01*
X117341021Y-59376472D01*
X117351500Y-59273901D01*
X117351499Y-57870900D01*
X117341021Y-57768328D01*
X117285954Y-57602147D01*
X117194048Y-57453144D01*
X117070256Y-57329352D01*
X116921253Y-57237446D01*
X116828990Y-57206873D01*
X116755073Y-57182379D01*
X116755066Y-57182378D01*
X116652502Y-57171900D01*
X115249506Y-57171900D01*
X115249490Y-57171901D01*
X115146926Y-57182379D01*
X114980749Y-57237445D01*
X114980744Y-57237447D01*
X114831742Y-57329353D01*
X114707953Y-57453142D01*
X114616047Y-57602144D01*
X114616045Y-57602149D01*
X114566434Y-57751865D01*
X114536409Y-57800542D01*
X113853137Y-58483814D01*
X113830333Y-58398706D01*
X113771090Y-58296094D01*
X113687306Y-58212310D01*
X113584694Y-58153067D01*
X113499583Y-58130261D01*
X114208513Y-57421332D01*
X114144756Y-57375011D01*
X113948410Y-57274967D01*
X113738835Y-57206873D01*
X113521181Y-57172400D01*
X113300819Y-57172400D01*
X113083164Y-57206873D01*
X112873589Y-57274967D01*
X112677233Y-57375016D01*
X112613485Y-57421331D01*
X112613485Y-57421332D01*
X113322414Y-58130261D01*
X113237306Y-58153067D01*
X113134694Y-58212310D01*
X113050910Y-58296094D01*
X112991667Y-58398706D01*
X112968861Y-58483814D01*
X112259932Y-57774885D01*
X112259931Y-57774885D01*
X112241628Y-57800079D01*
X112186298Y-57842745D01*
X112116685Y-57848724D01*
X112054889Y-57816119D01*
X112040991Y-57800079D01*
X111939248Y-57660040D01*
X111783364Y-57504156D01*
X111783359Y-57504152D01*
X111605026Y-57374587D01*
X111605025Y-57374586D01*
X111605023Y-57374585D01*
X111542097Y-57342522D01*
X111408607Y-57274504D01*
X111408604Y-57274503D01*
X111198953Y-57206385D01*
X111090087Y-57189142D01*
X110981223Y-57171900D01*
X110760779Y-57171900D01*
X110688202Y-57183395D01*
X110543048Y-57206385D01*
X110333397Y-57274503D01*
X110333394Y-57274504D01*
X110136979Y-57374584D01*
X110013385Y-57464380D01*
X109947578Y-57487859D01*
X109879524Y-57472033D01*
X109830830Y-57421927D01*
X109816500Y-57364061D01*
X109816500Y-51143550D01*
X109836185Y-51076511D01*
X109852814Y-51055873D01*
X110831970Y-50076717D01*
X110893293Y-50043233D01*
X110919651Y-50040399D01*
X112566002Y-50040399D01*
X112566008Y-50040399D01*
X112668797Y-50029899D01*
X112835334Y-49974714D01*
X112984656Y-49882612D01*
X113108712Y-49758556D01*
X113200814Y-49609234D01*
X113255999Y-49442697D01*
X113266500Y-49339909D01*
X113266499Y-47139892D01*
X113255999Y-47037103D01*
X113200814Y-46870566D01*
X113108712Y-46721244D01*
X112984656Y-46597188D01*
X112835334Y-46505086D01*
X112668797Y-46449901D01*
X112668795Y-46449900D01*
X112566010Y-46439400D01*
X110365998Y-46439400D01*
X110365981Y-46439401D01*
X110263203Y-46449900D01*
X110263200Y-46449901D01*
X110096668Y-46505085D01*
X110096663Y-46505087D01*
X109947342Y-46597189D01*
X109823289Y-46721242D01*
X109731187Y-46870563D01*
X109731185Y-46870568D01*
X109726962Y-46883312D01*
X109676001Y-47037103D01*
X109676001Y-47037104D01*
X109676000Y-47037104D01*
X109665500Y-47139883D01*
X109665500Y-48786248D01*
X109645815Y-48853287D01*
X109629181Y-48873929D01*
X108305375Y-50197734D01*
X108305372Y-50197738D01*
X108212299Y-50337030D01*
X108212292Y-50337043D01*
X108166962Y-50446483D01*
X108148185Y-50491813D01*
X108148182Y-50491825D01*
X108115500Y-50656128D01*
X97414200Y-50656128D01*
X97414200Y-48121895D01*
X104665500Y-48121895D01*
X104665500Y-48357904D01*
X104665501Y-48357920D01*
X104696306Y-48591910D01*
X104757394Y-48819893D01*
X104847714Y-49037945D01*
X104847719Y-49037956D01*
X104918677Y-49160857D01*
X104965727Y-49242350D01*
X104965729Y-49242353D01*
X104965730Y-49242354D01*
X105109406Y-49429597D01*
X105109412Y-49429604D01*
X105276295Y-49596487D01*
X105276302Y-49596493D01*
X105292909Y-49609236D01*
X105463550Y-49740173D01*
X105594918Y-49816018D01*
X105667943Y-49858180D01*
X105667948Y-49858182D01*
X105667951Y-49858184D01*
X105886007Y-49948506D01*
X106113986Y-50009593D01*
X106347989Y-50040400D01*
X106347996Y-50040400D01*
X106584004Y-50040400D01*
X106584011Y-50040400D01*
X106818014Y-50009593D01*
X107045993Y-49948506D01*
X107264049Y-49858184D01*
X107468450Y-49740173D01*
X107655699Y-49596492D01*
X107822592Y-49429599D01*
X107966273Y-49242350D01*
X108084284Y-49037949D01*
X108174606Y-48819893D01*
X108235693Y-48591914D01*
X108266500Y-48357911D01*
X108266500Y-48121889D01*
X108235693Y-47887886D01*
X108174606Y-47659907D01*
X108084284Y-47441851D01*
X108084282Y-47441848D01*
X108084280Y-47441843D01*
X108042118Y-47368818D01*
X107966273Y-47237450D01*
X107822592Y-47050201D01*
X107822587Y-47050195D01*
X107655704Y-46883312D01*
X107655697Y-46883306D01*
X107468454Y-46739630D01*
X107468453Y-46739629D01*
X107468450Y-46739627D01*
X107386957Y-46692577D01*
X107264056Y-46621619D01*
X107264045Y-46621614D01*
X107045993Y-46531294D01*
X106818010Y-46470206D01*
X106584020Y-46439401D01*
X106584017Y-46439400D01*
X106584011Y-46439400D01*
X106347989Y-46439400D01*
X106347983Y-46439400D01*
X106347979Y-46439401D01*
X106113989Y-46470206D01*
X105886006Y-46531294D01*
X105667954Y-46621614D01*
X105667943Y-46621619D01*
X105463545Y-46739630D01*
X105276302Y-46883306D01*
X105276295Y-46883312D01*
X105109412Y-47050195D01*
X105109406Y-47050202D01*
X104965730Y-47237445D01*
X104847719Y-47441843D01*
X104847714Y-47441854D01*
X104757394Y-47659906D01*
X104696306Y-47887889D01*
X104665501Y-48121879D01*
X104665500Y-48121895D01*
X97414200Y-48121895D01*
X97414200Y-46405048D01*
X98140500Y-46405048D01*
X98140500Y-46609751D01*
X98172522Y-46811934D01*
X98235781Y-47006623D01*
X98299691Y-47132053D01*
X98303680Y-47139881D01*
X98328715Y-47189013D01*
X98449028Y-47354613D01*
X98593786Y-47499371D01*
X98748749Y-47611956D01*
X98759390Y-47619687D01*
X98875607Y-47678903D01*
X98941776Y-47712618D01*
X98941778Y-47712618D01*
X98941781Y-47712620D01*
X99046137Y-47746527D01*
X99136465Y-47775877D01*
X99237557Y-47791888D01*
X99338648Y-47807900D01*
X99338649Y-47807900D01*
X99543351Y-47807900D01*
X99543352Y-47807900D01*
X99745534Y-47775877D01*
X99940219Y-47712620D01*
X100122610Y-47619687D01*
X100215590Y-47552132D01*
X100288213Y-47499371D01*
X100288215Y-47499368D01*
X100288219Y-47499366D01*
X100432966Y-47354619D01*
X100432968Y-47354615D01*
X100432971Y-47354613D01*
X100485732Y-47281990D01*
X100553287Y-47189010D01*
X100646220Y-47006619D01*
X100709477Y-46811934D01*
X100741500Y-46609752D01*
X100741500Y-46405048D01*
X117190500Y-46405048D01*
X117190500Y-46609751D01*
X117222522Y-46811934D01*
X117285781Y-47006623D01*
X117349691Y-47132053D01*
X117353680Y-47139881D01*
X117378715Y-47189013D01*
X117499028Y-47354613D01*
X117643786Y-47499371D01*
X117798749Y-47611956D01*
X117809390Y-47619687D01*
X117925607Y-47678903D01*
X117991776Y-47712618D01*
X117991778Y-47712618D01*
X117991781Y-47712620D01*
X118096137Y-47746527D01*
X118186465Y-47775877D01*
X118287557Y-47791888D01*
X118388648Y-47807900D01*
X118388649Y-47807900D01*
X118593351Y-47807900D01*
X118593352Y-47807900D01*
X118795534Y-47775877D01*
X118990219Y-47712620D01*
X119172610Y-47619687D01*
X119265590Y-47552132D01*
X119338213Y-47499371D01*
X119338215Y-47499368D01*
X119338219Y-47499366D01*
X119482966Y-47354619D01*
X119482968Y-47354615D01*
X119482971Y-47354613D01*
X119535732Y-47281990D01*
X119603287Y-47189010D01*
X119696220Y-47006619D01*
X119759477Y-46811934D01*
X119791500Y-46609752D01*
X119791500Y-46405048D01*
X119759477Y-46202866D01*
X119696220Y-46008181D01*
X119696218Y-46008178D01*
X119696218Y-46008176D01*
X119662503Y-45942007D01*
X119603287Y-45825790D01*
X119595556Y-45815149D01*
X119482971Y-45660186D01*
X119338213Y-45515428D01*
X119172613Y-45395115D01*
X119172612Y-45395114D01*
X119172610Y-45395113D01*
X119115653Y-45366091D01*
X118990223Y-45302181D01*
X118795534Y-45238922D01*
X118620995Y-45211278D01*
X118593352Y-45206900D01*
X118388648Y-45206900D01*
X118364329Y-45210751D01*
X118186465Y-45238922D01*
X117991776Y-45302181D01*
X117809386Y-45395115D01*
X117643786Y-45515428D01*
X117499028Y-45660186D01*
X117378715Y-45825786D01*
X117285781Y-46008176D01*
X117222522Y-46202865D01*
X117190500Y-46405048D01*
X100741500Y-46405048D01*
X100709477Y-46202866D01*
X100646220Y-46008181D01*
X100646218Y-46008178D01*
X100646218Y-46008176D01*
X100612503Y-45942007D01*
X100553287Y-45825790D01*
X100545556Y-45815149D01*
X100432971Y-45660186D01*
X100288213Y-45515428D01*
X100122613Y-45395115D01*
X100122612Y-45395114D01*
X100122610Y-45395113D01*
X100065653Y-45366091D01*
X99940223Y-45302181D01*
X99745534Y-45238922D01*
X99570995Y-45211278D01*
X99543352Y-45206900D01*
X99338648Y-45206900D01*
X99314329Y-45210751D01*
X99136465Y-45238922D01*
X98941776Y-45302181D01*
X98759386Y-45395115D01*
X98593786Y-45515428D01*
X98449028Y-45660186D01*
X98328715Y-45825786D01*
X98235781Y-46008176D01*
X98172522Y-46202865D01*
X98140500Y-46405048D01*
X97414200Y-46405048D01*
X97414200Y-43956900D01*
X97433885Y-43889861D01*
X97486689Y-43844106D01*
X97538200Y-43832900D01*
X120393800Y-43832900D01*
X120460839Y-43852585D01*
G37*
G04 #@! TD.AperFunction*
M02*
