G04 #@! TF.GenerationSoftware,KiCad,Pcbnew,9.0.6*
G04 #@! TF.CreationDate,2025-12-22T23:05:57+03:00*
G04 #@! TF.ProjectId,RainLight,5261696e-4c69-4676-9874-2e6b69636164,rev?*
G04 #@! TF.SameCoordinates,Original*
G04 #@! TF.FileFunction,Legend,Bot*
G04 #@! TF.FilePolarity,Positive*
%FSLAX46Y46*%
G04 Gerber Fmt 4.6, Leading zero omitted, Abs format (unit mm)*
G04 Created by KiCad (PCBNEW 9.0.6) date 2025-12-22 23:05:57*
%MOMM*%
%LPD*%
G01*
G04 APERTURE LIST*
%ADD10C,0.100000*%
%ADD11C,0.300000*%
G04 APERTURE END LIST*
D10*
X112124609Y-66829617D02*
X112124609Y-66496284D01*
X112648419Y-66496284D02*
X111648419Y-66496284D01*
X111648419Y-66496284D02*
X111648419Y-66972474D01*
X112362704Y-67305808D02*
X112362704Y-67781998D01*
X112648419Y-67210570D02*
X111648419Y-67543903D01*
X111648419Y-67543903D02*
X112648419Y-67877236D01*
X112648419Y-68210570D02*
X111648419Y-68210570D01*
X111648419Y-68210570D02*
X112648419Y-68781998D01*
X112648419Y-68781998D02*
X111648419Y-68781998D01*
X112076990Y-69401046D02*
X112029371Y-69305808D01*
X112029371Y-69305808D02*
X111981752Y-69258189D01*
X111981752Y-69258189D02*
X111886514Y-69210570D01*
X111886514Y-69210570D02*
X111838895Y-69210570D01*
X111838895Y-69210570D02*
X111743657Y-69258189D01*
X111743657Y-69258189D02*
X111696038Y-69305808D01*
X111696038Y-69305808D02*
X111648419Y-69401046D01*
X111648419Y-69401046D02*
X111648419Y-69591522D01*
X111648419Y-69591522D02*
X111696038Y-69686760D01*
X111696038Y-69686760D02*
X111743657Y-69734379D01*
X111743657Y-69734379D02*
X111838895Y-69781998D01*
X111838895Y-69781998D02*
X111886514Y-69781998D01*
X111886514Y-69781998D02*
X111981752Y-69734379D01*
X111981752Y-69734379D02*
X112029371Y-69686760D01*
X112029371Y-69686760D02*
X112076990Y-69591522D01*
X112076990Y-69591522D02*
X112076990Y-69401046D01*
X112076990Y-69401046D02*
X112124609Y-69305808D01*
X112124609Y-69305808D02*
X112172228Y-69258189D01*
X112172228Y-69258189D02*
X112267466Y-69210570D01*
X112267466Y-69210570D02*
X112457942Y-69210570D01*
X112457942Y-69210570D02*
X112553180Y-69258189D01*
X112553180Y-69258189D02*
X112600800Y-69305808D01*
X112600800Y-69305808D02*
X112648419Y-69401046D01*
X112648419Y-69401046D02*
X112648419Y-69591522D01*
X112648419Y-69591522D02*
X112600800Y-69686760D01*
X112600800Y-69686760D02*
X112553180Y-69734379D01*
X112553180Y-69734379D02*
X112457942Y-69781998D01*
X112457942Y-69781998D02*
X112267466Y-69781998D01*
X112267466Y-69781998D02*
X112172228Y-69734379D01*
X112172228Y-69734379D02*
X112124609Y-69686760D01*
X112124609Y-69686760D02*
X112076990Y-69591522D01*
X111648419Y-70401046D02*
X111648419Y-70496284D01*
X111648419Y-70496284D02*
X111696038Y-70591522D01*
X111696038Y-70591522D02*
X111743657Y-70639141D01*
X111743657Y-70639141D02*
X111838895Y-70686760D01*
X111838895Y-70686760D02*
X112029371Y-70734379D01*
X112029371Y-70734379D02*
X112267466Y-70734379D01*
X112267466Y-70734379D02*
X112457942Y-70686760D01*
X112457942Y-70686760D02*
X112553180Y-70639141D01*
X112553180Y-70639141D02*
X112600800Y-70591522D01*
X112600800Y-70591522D02*
X112648419Y-70496284D01*
X112648419Y-70496284D02*
X112648419Y-70401046D01*
X112648419Y-70401046D02*
X112600800Y-70305808D01*
X112600800Y-70305808D02*
X112553180Y-70258189D01*
X112553180Y-70258189D02*
X112457942Y-70210570D01*
X112457942Y-70210570D02*
X112267466Y-70162951D01*
X112267466Y-70162951D02*
X112029371Y-70162951D01*
X112029371Y-70162951D02*
X111838895Y-70210570D01*
X111838895Y-70210570D02*
X111743657Y-70258189D01*
X111743657Y-70258189D02*
X111696038Y-70305808D01*
X111696038Y-70305808D02*
X111648419Y-70401046D01*
X112076990Y-71305808D02*
X112029371Y-71210570D01*
X112029371Y-71210570D02*
X111981752Y-71162951D01*
X111981752Y-71162951D02*
X111886514Y-71115332D01*
X111886514Y-71115332D02*
X111838895Y-71115332D01*
X111838895Y-71115332D02*
X111743657Y-71162951D01*
X111743657Y-71162951D02*
X111696038Y-71210570D01*
X111696038Y-71210570D02*
X111648419Y-71305808D01*
X111648419Y-71305808D02*
X111648419Y-71496284D01*
X111648419Y-71496284D02*
X111696038Y-71591522D01*
X111696038Y-71591522D02*
X111743657Y-71639141D01*
X111743657Y-71639141D02*
X111838895Y-71686760D01*
X111838895Y-71686760D02*
X111886514Y-71686760D01*
X111886514Y-71686760D02*
X111981752Y-71639141D01*
X111981752Y-71639141D02*
X112029371Y-71591522D01*
X112029371Y-71591522D02*
X112076990Y-71496284D01*
X112076990Y-71496284D02*
X112076990Y-71305808D01*
X112076990Y-71305808D02*
X112124609Y-71210570D01*
X112124609Y-71210570D02*
X112172228Y-71162951D01*
X112172228Y-71162951D02*
X112267466Y-71115332D01*
X112267466Y-71115332D02*
X112457942Y-71115332D01*
X112457942Y-71115332D02*
X112553180Y-71162951D01*
X112553180Y-71162951D02*
X112600800Y-71210570D01*
X112600800Y-71210570D02*
X112648419Y-71305808D01*
X112648419Y-71305808D02*
X112648419Y-71496284D01*
X112648419Y-71496284D02*
X112600800Y-71591522D01*
X112600800Y-71591522D02*
X112553180Y-71639141D01*
X112553180Y-71639141D02*
X112457942Y-71686760D01*
X112457942Y-71686760D02*
X112267466Y-71686760D01*
X112267466Y-71686760D02*
X112172228Y-71639141D01*
X112172228Y-71639141D02*
X112124609Y-71591522D01*
X112124609Y-71591522D02*
X112076990Y-71496284D01*
X111743657Y-72067713D02*
X111696038Y-72115332D01*
X111696038Y-72115332D02*
X111648419Y-72210570D01*
X111648419Y-72210570D02*
X111648419Y-72448665D01*
X111648419Y-72448665D02*
X111696038Y-72543903D01*
X111696038Y-72543903D02*
X111743657Y-72591522D01*
X111743657Y-72591522D02*
X111838895Y-72639141D01*
X111838895Y-72639141D02*
X111934133Y-72639141D01*
X111934133Y-72639141D02*
X112076990Y-72591522D01*
X112076990Y-72591522D02*
X112648419Y-72020094D01*
X112648419Y-72020094D02*
X112648419Y-72639141D01*
D11*
X100083257Y-56515482D02*
X100083257Y-57229768D01*
X100511828Y-56372625D02*
X99011828Y-56872625D01*
X99011828Y-56872625D02*
X100511828Y-57372625D01*
X99726114Y-58372624D02*
X99797542Y-58586910D01*
X99797542Y-58586910D02*
X99868971Y-58658339D01*
X99868971Y-58658339D02*
X100011828Y-58729767D01*
X100011828Y-58729767D02*
X100226114Y-58729767D01*
X100226114Y-58729767D02*
X100368971Y-58658339D01*
X100368971Y-58658339D02*
X100440400Y-58586910D01*
X100440400Y-58586910D02*
X100511828Y-58444053D01*
X100511828Y-58444053D02*
X100511828Y-57872624D01*
X100511828Y-57872624D02*
X99011828Y-57872624D01*
X99011828Y-57872624D02*
X99011828Y-58372624D01*
X99011828Y-58372624D02*
X99083257Y-58515482D01*
X99083257Y-58515482D02*
X99154685Y-58586910D01*
X99154685Y-58586910D02*
X99297542Y-58658339D01*
X99297542Y-58658339D02*
X99440400Y-58658339D01*
X99440400Y-58658339D02*
X99583257Y-58586910D01*
X99583257Y-58586910D02*
X99654685Y-58515482D01*
X99654685Y-58515482D02*
X99726114Y-58372624D01*
X99726114Y-58372624D02*
X99726114Y-57872624D01*
X99083257Y-61301196D02*
X99011828Y-61158339D01*
X99011828Y-61158339D02*
X99011828Y-60944053D01*
X99011828Y-60944053D02*
X99083257Y-60729767D01*
X99083257Y-60729767D02*
X99226114Y-60586910D01*
X99226114Y-60586910D02*
X99368971Y-60515481D01*
X99368971Y-60515481D02*
X99654685Y-60444053D01*
X99654685Y-60444053D02*
X99868971Y-60444053D01*
X99868971Y-60444053D02*
X100154685Y-60515481D01*
X100154685Y-60515481D02*
X100297542Y-60586910D01*
X100297542Y-60586910D02*
X100440400Y-60729767D01*
X100440400Y-60729767D02*
X100511828Y-60944053D01*
X100511828Y-60944053D02*
X100511828Y-61086910D01*
X100511828Y-61086910D02*
X100440400Y-61301196D01*
X100440400Y-61301196D02*
X100368971Y-61372624D01*
X100368971Y-61372624D02*
X99868971Y-61372624D01*
X99868971Y-61372624D02*
X99868971Y-61086910D01*
X100511828Y-62015481D02*
X99511828Y-62015481D01*
X99011828Y-62015481D02*
X99083257Y-61944053D01*
X99083257Y-61944053D02*
X99154685Y-62015481D01*
X99154685Y-62015481D02*
X99083257Y-62086910D01*
X99083257Y-62086910D02*
X99011828Y-62015481D01*
X99011828Y-62015481D02*
X99154685Y-62015481D01*
X100511828Y-62729767D02*
X99511828Y-62729767D01*
X99797542Y-62729767D02*
X99654685Y-62801196D01*
X99654685Y-62801196D02*
X99583257Y-62872625D01*
X99583257Y-62872625D02*
X99511828Y-63015482D01*
X99511828Y-63015482D02*
X99511828Y-63158339D01*
X100511828Y-63872624D02*
X100440400Y-63729767D01*
X100440400Y-63729767D02*
X100297542Y-63658338D01*
X100297542Y-63658338D02*
X99011828Y-63658338D01*
X100511828Y-65086910D02*
X99726114Y-65086910D01*
X99726114Y-65086910D02*
X99583257Y-65015481D01*
X99583257Y-65015481D02*
X99511828Y-64872624D01*
X99511828Y-64872624D02*
X99511828Y-64586910D01*
X99511828Y-64586910D02*
X99583257Y-64444052D01*
X100440400Y-65086910D02*
X100511828Y-64944052D01*
X100511828Y-64944052D02*
X100511828Y-64586910D01*
X100511828Y-64586910D02*
X100440400Y-64444052D01*
X100440400Y-64444052D02*
X100297542Y-64372624D01*
X100297542Y-64372624D02*
X100154685Y-64372624D01*
X100154685Y-64372624D02*
X100011828Y-64444052D01*
X100011828Y-64444052D02*
X99940400Y-64586910D01*
X99940400Y-64586910D02*
X99940400Y-64944052D01*
X99940400Y-64944052D02*
X99868971Y-65086910D01*
X99511828Y-65801195D02*
X100511828Y-65801195D01*
X99654685Y-65801195D02*
X99583257Y-65872624D01*
X99583257Y-65872624D02*
X99511828Y-66015481D01*
X99511828Y-66015481D02*
X99511828Y-66229767D01*
X99511828Y-66229767D02*
X99583257Y-66372624D01*
X99583257Y-66372624D02*
X99726114Y-66444053D01*
X99726114Y-66444053D02*
X100511828Y-66444053D01*
X100511828Y-67801196D02*
X99011828Y-67801196D01*
X100440400Y-67801196D02*
X100511828Y-67658338D01*
X100511828Y-67658338D02*
X100511828Y-67372624D01*
X100511828Y-67372624D02*
X100440400Y-67229767D01*
X100440400Y-67229767D02*
X100368971Y-67158338D01*
X100368971Y-67158338D02*
X100226114Y-67086910D01*
X100226114Y-67086910D02*
X99797542Y-67086910D01*
X99797542Y-67086910D02*
X99654685Y-67158338D01*
X99654685Y-67158338D02*
X99583257Y-67229767D01*
X99583257Y-67229767D02*
X99511828Y-67372624D01*
X99511828Y-67372624D02*
X99511828Y-67658338D01*
X99511828Y-67658338D02*
X99583257Y-67801196D01*
X99154685Y-69586910D02*
X99083257Y-69658338D01*
X99083257Y-69658338D02*
X99011828Y-69801196D01*
X99011828Y-69801196D02*
X99011828Y-70158338D01*
X99011828Y-70158338D02*
X99083257Y-70301196D01*
X99083257Y-70301196D02*
X99154685Y-70372624D01*
X99154685Y-70372624D02*
X99297542Y-70444053D01*
X99297542Y-70444053D02*
X99440400Y-70444053D01*
X99440400Y-70444053D02*
X99654685Y-70372624D01*
X99654685Y-70372624D02*
X100511828Y-69515481D01*
X100511828Y-69515481D02*
X100511828Y-70444053D01*
X99154685Y-71015481D02*
X99083257Y-71086909D01*
X99083257Y-71086909D02*
X99011828Y-71229767D01*
X99011828Y-71229767D02*
X99011828Y-71586909D01*
X99011828Y-71586909D02*
X99083257Y-71729767D01*
X99083257Y-71729767D02*
X99154685Y-71801195D01*
X99154685Y-71801195D02*
X99297542Y-71872624D01*
X99297542Y-71872624D02*
X99440400Y-71872624D01*
X99440400Y-71872624D02*
X99654685Y-71801195D01*
X99654685Y-71801195D02*
X100511828Y-70944052D01*
X100511828Y-70944052D02*
X100511828Y-71872624D01*
X100368971Y-72515480D02*
X100440400Y-72586909D01*
X100440400Y-72586909D02*
X100511828Y-72515480D01*
X100511828Y-72515480D02*
X100440400Y-72444052D01*
X100440400Y-72444052D02*
X100368971Y-72515480D01*
X100368971Y-72515480D02*
X100511828Y-72515480D01*
X100511828Y-74015481D02*
X100511828Y-73158338D01*
X100511828Y-73586909D02*
X99011828Y-73586909D01*
X99011828Y-73586909D02*
X99226114Y-73444052D01*
X99226114Y-73444052D02*
X99368971Y-73301195D01*
X99368971Y-73301195D02*
X99440400Y-73158338D01*
X99154685Y-74586909D02*
X99083257Y-74658337D01*
X99083257Y-74658337D02*
X99011828Y-74801195D01*
X99011828Y-74801195D02*
X99011828Y-75158337D01*
X99011828Y-75158337D02*
X99083257Y-75301195D01*
X99083257Y-75301195D02*
X99154685Y-75372623D01*
X99154685Y-75372623D02*
X99297542Y-75444052D01*
X99297542Y-75444052D02*
X99440400Y-75444052D01*
X99440400Y-75444052D02*
X99654685Y-75372623D01*
X99654685Y-75372623D02*
X100511828Y-74515480D01*
X100511828Y-74515480D02*
X100511828Y-75444052D01*
X100368971Y-76086908D02*
X100440400Y-76158337D01*
X100440400Y-76158337D02*
X100511828Y-76086908D01*
X100511828Y-76086908D02*
X100440400Y-76015480D01*
X100440400Y-76015480D02*
X100368971Y-76086908D01*
X100368971Y-76086908D02*
X100511828Y-76086908D01*
X99154685Y-76729766D02*
X99083257Y-76801194D01*
X99083257Y-76801194D02*
X99011828Y-76944052D01*
X99011828Y-76944052D02*
X99011828Y-77301194D01*
X99011828Y-77301194D02*
X99083257Y-77444052D01*
X99083257Y-77444052D02*
X99154685Y-77515480D01*
X99154685Y-77515480D02*
X99297542Y-77586909D01*
X99297542Y-77586909D02*
X99440400Y-77586909D01*
X99440400Y-77586909D02*
X99654685Y-77515480D01*
X99654685Y-77515480D02*
X100511828Y-76658337D01*
X100511828Y-76658337D02*
X100511828Y-77586909D01*
X99011828Y-78515480D02*
X99011828Y-78658337D01*
X99011828Y-78658337D02*
X99083257Y-78801194D01*
X99083257Y-78801194D02*
X99154685Y-78872623D01*
X99154685Y-78872623D02*
X99297542Y-78944051D01*
X99297542Y-78944051D02*
X99583257Y-79015480D01*
X99583257Y-79015480D02*
X99940400Y-79015480D01*
X99940400Y-79015480D02*
X100226114Y-78944051D01*
X100226114Y-78944051D02*
X100368971Y-78872623D01*
X100368971Y-78872623D02*
X100440400Y-78801194D01*
X100440400Y-78801194D02*
X100511828Y-78658337D01*
X100511828Y-78658337D02*
X100511828Y-78515480D01*
X100511828Y-78515480D02*
X100440400Y-78372623D01*
X100440400Y-78372623D02*
X100368971Y-78301194D01*
X100368971Y-78301194D02*
X100226114Y-78229765D01*
X100226114Y-78229765D02*
X99940400Y-78158337D01*
X99940400Y-78158337D02*
X99583257Y-78158337D01*
X99583257Y-78158337D02*
X99297542Y-78229765D01*
X99297542Y-78229765D02*
X99154685Y-78301194D01*
X99154685Y-78301194D02*
X99083257Y-78372623D01*
X99083257Y-78372623D02*
X99011828Y-78515480D01*
X99154685Y-79586908D02*
X99083257Y-79658336D01*
X99083257Y-79658336D02*
X99011828Y-79801194D01*
X99011828Y-79801194D02*
X99011828Y-80158336D01*
X99011828Y-80158336D02*
X99083257Y-80301194D01*
X99083257Y-80301194D02*
X99154685Y-80372622D01*
X99154685Y-80372622D02*
X99297542Y-80444051D01*
X99297542Y-80444051D02*
X99440400Y-80444051D01*
X99440400Y-80444051D02*
X99654685Y-80372622D01*
X99654685Y-80372622D02*
X100511828Y-79515479D01*
X100511828Y-79515479D02*
X100511828Y-80444051D01*
X99011828Y-81801193D02*
X99011828Y-81086907D01*
X99011828Y-81086907D02*
X99726114Y-81015479D01*
X99726114Y-81015479D02*
X99654685Y-81086907D01*
X99654685Y-81086907D02*
X99583257Y-81229765D01*
X99583257Y-81229765D02*
X99583257Y-81586907D01*
X99583257Y-81586907D02*
X99654685Y-81729765D01*
X99654685Y-81729765D02*
X99726114Y-81801193D01*
X99726114Y-81801193D02*
X99868971Y-81872622D01*
X99868971Y-81872622D02*
X100226114Y-81872622D01*
X100226114Y-81872622D02*
X100368971Y-81801193D01*
X100368971Y-81801193D02*
X100440400Y-81729765D01*
X100440400Y-81729765D02*
X100511828Y-81586907D01*
X100511828Y-81586907D02*
X100511828Y-81229765D01*
X100511828Y-81229765D02*
X100440400Y-81086907D01*
X100440400Y-81086907D02*
X100368971Y-81015479D01*
M02*
